# AST/ASF file generated using VICON BodyLanguage
# -----------------------------------------------
:version 1.10
:name VICON
:units
  mass 1.0
  length 0.45
  angle deg
:documentation
   .ast/.asf automatically generated from VICON data using
   VICON BodyBuilder and BodyLanguage model FoxedUp or BRILLIANT.MOD
:root
   order TX TY TZ RX RY RZ
   axis XYZ
   position 0 0 0  
   orientation 0 0 0 
:bonedata
  begin
     id 1 
     name lhipjoint
     direction 0.822369 -0.411937 0.392449 
     length 3.8167 
     axis 0 0 0  XYZ
  end
  begin
     id 2 
     name lfemur
     direction 0.34202 -0.939693 0  
     length 6.16791  
     axis 0 0 20  XYZ
    dof rx ry rz
    limits (-160.0 20.0)
           (-70.0 70.0)
           (-60.0 70.0)
  end
  begin
     id 3 
     name ltibia
     direction 0.34202 -0.939693 0   
     length 7.07101   
     axis 0 0 20   XYZ
    dof rx
    limits (-10.0 170.0)
  end
  begin
     id 4 
     name lfoot
     direction 0.028254 -0.0776273 0.996582   
     length 1.66799   
     axis -90 7.62852e-016 20   XYZ
    dof rx rz
    limits (-45.0 90.0)
           (-70.0 20.0)
  end
  begin
     id 5 
     name ltoes
     direction 1.53483e-011 -4.21688e-011 1   
     length 0.851674   
     axis -90 7.62852e-016 20   XYZ
    dof rx
    limits (-90.0 20.0)
  end
  begin
     id 6 
     name rhipjoint
     direction -0.822466 -0.411836 0.392353   
     length 3.81764  
     axis 0 0 0  XYZ 
  end
  begin
     id 7 
     name rfemur
     direction -0.34202 -0.939693 0   
     length 6.28636   
     axis 0 0 -20   XYZ
    dof rx ry rz
    limits (-160.0 20.0)
           (-70.0 70.0)
           (-70.0 60.0)
  end
  begin
     id 8 
     name rtibia
     direction -0.34202 -0.939693 0   
     length 6.85621   
     axis 0 0 -20   XYZ
    dof rx
    limits (-10.0 170.0)
 end
 begin
     id 9 
     name rfoot
     direction -0.0553036 -0.151945 0.98684   
     length 1.57293  
     axis -90 -7.62852e-016 -20   XYZ
    dof rx rz
    limits (-45.0 90.0)
           (-20.0 70.0)
  end
  begin
     id 10 
     name rtoes
     direction -1.53592e-011 -4.21964e-011 1   
     length 0.802812   
     axis -90 -7.62852e-016 -20   XYZ
    dof rx
    limits (-90.0 20.0)
  end
  begin
     id 11 
     name lowerback
     direction 0.00654913 0.996475 -0.0836396   
     length 1.97212   
     axis 0 0 0   XYZ
    dof rx ry rz
    limits (-20.0 45.0)
           (-30.0 30.0)
           (-30.0 30.0)
  end
  begin
     id 12 
     name upperback
     direction 0.0111875 0.994527 0.103877   
     length 1.89704   
     axis 0 0 0   XYZ
    dof rx ry rz
    limits (-20.0 45.0)
           (-30.0 30.0)
           (-30.0 30.0)
  end
  begin
     id 13 
     name thorax
     direction 0.00473652 0.989004 0.147814   
     length 1.94516   
     axis 0 0 0   XYZ
    dof rx ry rz
    limits (-20.0 45.0)
           (-30.0 30.0)
           (-30.0 30.0)
  end
  begin
     id 14 
     name lowerneck
     direction -0.00925808 0.999011 0.0434791   
     length 1.81771   
     axis 0 0 0   XYZ
    dof rx ry rz
    limits (-20.0 45.0)
           (-30.0 30.0)
           (-30.0 30.0)
  end
  begin
     id 15 
     name upperneck
     direction 0.00451595 0.964412 -0.264365   
     length 1.80434   
     axis 0 0 0   XYZ
    dof rx ry rz
    limits (-20.0 45.0)
           (-30.0 30.0)
           (-30.0 30.0)
  end
  begin
     id 16
     name head
     direction -0.00110849 0.995756 -0.0920241  
     length 1.84006  
     axis 0 0 0   XYZ
    dof rx ry rz
    limits (-20.0 45.0)
           (-30.0 30.0)
           (-30.0 30.0)
  end
  begin
     id 17 
     name lclavicle
     direction 0.921253 0.385213 0.0538957  
     length 3.67415  
     axis 0 0 0   XYZ
    dof ry rz
    limits (-20.0 10.0)
           (0.0 20.0)
  end
  begin
     id 18 
     name lhumerus
     direction 1 -4.48961e-011 6.73441e-028   
     length 4.32712   
     axis 180 -30 -90   XYZ
    dof rx ry rz
    limits (-60.0 90.0)
           (-90.0 90.0)
           (-90.0 90.0)
  end
  begin
     id 19
     name lradius
     direction 1 -4.48985e-011 -9.53507e-028   
     length 3.28587   
     axis 180 -30 -90   XYZ
    dof rx
    limits (-10.0 170.0)
  end
  begin
     id 20
     name lwrist
     direction 1 -4.48951e-011 -4.67472e-027   
     length 1.64293   
     axis 1.65735e-015 90 90   XYZ
    dof ry
    limits (-180.0 0.0)
 end
  begin
     id 21 
     name lhand
     direction 1 -4.48946e-011 -9.34945e-027   
     length 0.433158   
     axis 5.96574e-015 90 90   XYZ
    dof rx rz
    limits (-90.0 90.0)
           (-45.0 45.0)
  end
  begin
     id 22 
     name lfingers
     direction 1 -4.48882e-011 -1.86989e-026   
     length 0.349224   
     axis 1.19315e-014 90 90   XYZ
    dof rx
    limits (0.0 90.0)
  end
  begin
     id 23
     name lthumb
     direction 0.707107 -6.3493e-011 0.707107   
     length 0.501417   
     axis -90 45 2.85299e-015   XYZ
    dof rx rz
    limits (-45.0 45.0)
           (-45.0 45.0)
  end
  begin
     id 24 
     name rclavicle
     direction -0.884378 0.46502 -0.0403866   
     length 3.50218  
     axis 0 0 0   XYZ 
    dof ry rz
    limits (-10.0 20.0)
           (-20.0 0.0)
  end
  begin
     id 25 
     name rhumerus
     direction -1 -4.48964e-011 1.58188e-027  
     length 4.29104   
     axis 180 30 90   XYZ
    dof rx ry rz
    limits (-90.0 60.0)
           (-90.0 90.0)
           (-90.0 90.0)
  end
  begin
     id 26 
     name rradius
     direction -1 -4.48978e-011 -1.9722e-027   
     length 3.2272   
     axis 180 30 90   XYZ
    dof rx
    limits (-10.0 170.0)
  end
  begin
     id 27 
     name rwrist
     direction -1 -4.48969e-011 -4.67472e-027   
     length 1.6136   
     axis 1.65735e-015 -90 -90   XYZ
    dof ry
    limits (-180.0 0.0)
  end
  begin
     id 28
     name rhand
     direction -1 -4.48846e-011 -9.34945e-027   
     length 0.543623   
     axis 5.96574e-015 -90 -90   XYZ
    dof rx rz
    limits (-90.0 90.0)
           (-45.0 45.0)
  end
  begin
     id 29
     name rfingers
     direction -1 -4.49074e-011 -1.86989e-026   
     length 0.438283   
     axis 1.19315e-014 -90 -90   XYZ
    dof rx
    limits (0.0 90.0)
  end
  begin
     id 30
     name rthumb
     direction -0.707107 -6.34834e-011 0.707107   
     length 0.629289   
     axis -90 -45 -2.85299e-015   XYZ
    dof rx rz
    limits (-45.0 45.0)
           (-45.0 45.0)
  end
:hierarchy
  begin
    root lhipjoint rhipjoint lowerback
    lhipjoint lfemur
    lfemur ltibia
    ltibia lfoot
    lfoot ltoes
    rhipjoint rfemur
    rfemur rtibia
    rtibia rfoot
    rfoot rtoes
    lowerback upperback
    upperback thorax
    thorax lowerneck lclavicle rclavicle
    lowerneck upperneck
    upperneck head
    lclavicle lhumerus
    lhumerus lradius
    lradius lwrist
    lwrist lhand lthumb
    lhand lfingers
    rclavicle rhumerus
    rhumerus rradius
    rradius rwrist
    rwrist rhand rthumb
    rhand rfingers
  end

#!OML:ASF H:\GeneralSubjects\Female5\Project 1\Capture day 1\Session 1\Female5.ASF
:FULLY-SPECIFIED
:DEGREES
82
root -25.515 15.2143 -4.09597 -117.369 77.1547 -128.931
lowerback 6.15611 1.79586 7.3108
upperback -9.88167 4.44921 4.32234
thorax -14.2573 1.84311 -0.134381
lowerneck -19.2257 -5.51813 -5.12373
upperneck 30.2898 -3.24596 -6.765
head 13.4773 -2.70018 -2.29545
rclavicle 1.57537e-014 -1.23246e-014
rhumerus -42.7908 19.9346 -77.035
rradius 66.8401
rwrist -1.28875
rhand -16.0393 -18.822
rfingers 7.12502
rthumb 10.1623 -48.5566
lclavicle 1.57537e-014 -1.23246e-014
lhumerus -59.4578 19.3979 64.4119
lradius 25.7245
lwrist -15.2238
lhand -21.9182 33.5661
lfingers 7.12502
lthumb 4.48777 63.4986
rfemur 16.7416 19.7332 46.9331
rtibia -0.74649
rfoot -31.489 -30.0345
rtoes -25.3782
lfemur -47.4558 -8.83396 -6.79483
ltibia 31.1134
lfoot -9.33097 15.5339
ltoes -68.8039
83
root -25.1434 15.221 -4.21454 -120.96 77.9723 -132.218
lowerback 6.00642 1.69589 6.64181
upperback -9.8111 4.1169 3.91267
thorax -14.0794 1.71915 -0.15425
lowerneck -19.5079 -5.48912 -5.60911
upperneck 30.0719 -3.15899 -6.42095
head 13.4706 -2.67916 -2.06803
rclavicle -4.59193e-014 1.82882e-014
rhumerus -42.3286 18.5211 -75.6478
rradius 71.4794
rwrist 1.40147
rhand -19.6908 -17.5509
rfingers 7.12502
rthumb 6.63834 -47.4269
lclavicle -4.59193e-014 1.82882e-014
lhumerus -60.6165 21.1857 61.6232
lradius 23.7666
lwrist -18.8413
lhand -19.835 32.3228
lfingers 7.12502
lthumb 6.49912 62.2031
rfemur 16.6926 16.6706 44.6019
rtibia 1.719
rfoot -27.5222 -29.379
rtoes -32.0166
lfemur -45.9774 -8.66813 -9.26031
ltibia 32.3313
lfoot -8.51416 16.533
ltoes -69.1447
84
root -24.7703 15.242 -4.3355 -124.631 78.6215 -135.633
lowerback 5.52393 1.65557 5.69617
upperback -9.79392 3.83943 3.62652
thorax -13.7779 1.66869 0.117697
lowerneck -19.1911 -5.47244 -5.48634
upperneck 29.7915 -3.18575 -6.55496
head 13.2776 -2.68879 -2.12273
rclavicle 5.18828e-014 9.54166e-015
rhumerus -42.1234 16.7197 -73.9748
rradius 77.0655
rwrist 3.24081
rhand -21.5012 -18.2628
rfingers 7.12502
rthumb 4.89044 -48.1864
lclavicle 5.18828e-014 9.54166e-015
lhumerus -61.8609 22.6169 58.7564
lradius 22.0769
lwrist -23.2226
lhand -21.6748 32.865
lfingers 7.12502
lthumb 4.72279 62.7924
rfemur 16.3278 13.6989 42.2535
rtibia 4.72178
rfoot -28.0062 -26.4828
rtoes -26.725
lfemur -43.8807 -8.28614 -11.62
ltibia 32.5086
lfoot -9.77208 14.7309
ltoes -68.2611
85
root -24.4009 15.2781 -4.46473 -128.143 79.0875 -138.836
lowerback 5.28997 1.5671 5.1323
upperback -9.86523 3.59276 3.35316
thorax -13.7233 1.58852 0.178409
lowerneck -18.808 -5.43484 -5.41243
upperneck 29.7435 -3.15698 -6.64144
head 13.1729 -2.67099 -2.14744
rclavicle -5.71506e-015 -7.95139e-016
rhumerus -42.0764 14.7066 -72.1876
rradius 82.7397
rwrist 5.19434
rhand -24.2035 -17.2414
rfingers 7.12502
rthumb 2.28085 -47.2089
lclavicle -5.71506e-015 -7.95139e-016
lhumerus -63.0689 23.608 56.177
lradius 20.8439
lwrist -27.3997
lhand -21.3403 32.3236
lfingers 7.12502
lthumb 5.04573 62.2435
rfemur 15.5291 10.6287 39.8592
rtibia 8.53419
rfoot -25.6612 -24.0693
rtoes -23.2332
lfemur -41.3183 -8.37586 -13.5411
ltibia 31.8697
lfoot -11.1089 13.3175
ltoes -68.0031
86
root -24.0379 15.3259 -4.59469 -131.901 79.5766 -142.224
lowerback 5.36815 1.43615 4.57128
upperback -10.0132 3.32881 3.10883
thorax -13.9614 1.49632 0.262009
lowerneck -18.3831 -5.34702 -5.4072
upperneck 29.7406 -3.03064 -6.71563
head 13.0833 -2.61455 -2.14008
rclavicle -1.19271e-014 1.55052e-014
rhumerus -42.06 12.7606 -70.2408
rradius 88.9176
rwrist 6.09963
rhand -25.8558 -15.2507
rfingers 7.12502
rthumb 0.68504 -45.2294
lclavicle -1.19271e-014 1.55052e-014
lhumerus -63.8469 23.6455 54.9952
lradius 20.3303
lwrist -29.7181
lhand -19.8234 31.473
lfingers 7.12502
lthumb 6.51029 61.3529
rfemur 14.1907 7.41232 37.235
rtibia 13.2858
rfoot -21.6391 -22.9043
rtoes -19.9512
lfemur -38.4293 -8.83339 -15.3381
ltibia 30.7559
lfoot -12.3326 12.506
ltoes -67.7612
87
root -23.6886 15.3832 -4.72458 -136.591 80.0829 -146.512
lowerback 5.49671 1.30171 3.97819
upperback -10.0724 3.03735 2.82314
thorax -14.1217 1.39125 0.322918
lowerneck -18.0325 -5.2216 -5.32483
upperneck 29.6741 -2.83878 -6.90032
head 12.9803 -2.53574 -2.17827
rclavicle 1.14301e-014 -1.59028e-014
rhumerus -41.8294 10.9156 -68.1364
rradius 95.4535
rwrist 6.11706
rhand -30.4276 -15.6747
rfingers 7.12502
rthumb -3.73041 -45.6218
lclavicle 1.14301e-014 -1.59028e-014
lhumerus -63.9945 23.1839 54.868
lradius 20.4034
lwrist -30.4555
lhand -18.6723 31.349
lfingers 7.12502
lthumb 7.62146 61.1917
rfemur 12.3054 4.30322 34.4842
rtibia 18.9765
rfoot -16.0686 -23.1461
rtoes -12.3768
lfemur -35.3627 -9.52936 -17.2458
ltibia 29.438
lfoot -13.5118 12.1961
ltoes -67.7626
88
root -23.3522 15.4475 -4.85365 -142.147 80.5235 -151.66
lowerback 5.61265 1.18383 3.35639
upperback -10.0416 2.74615 2.50856
thorax -14.1631 1.28782 0.370259
lowerneck -17.759 -5.1549 -4.93654
upperneck 29.6607 -2.7754 -7.24149
head 12.9002 -2.50225 -2.35362
rclavicle 1.6201e-014 -2.82274e-014
rhumerus -41.2555 8.91383 -65.7857
rradius 102.018
rwrist 5.94805
rhand -33.4237 -15.4286
rfingers 7.12502
rthumb -6.62324 -45.305
lclavicle 1.6201e-014 -2.82274e-014
lhumerus -63.8012 22.7882 54.9378
lradius 20.8195
lwrist -30.4152
lhand -18.9328 29.916
lfingers 7.12502
lthumb 7.36999 59.7676
rfemur 10.0339 1.69598 31.9151
rtibia 25.1836
rfoot -13.3196 -23.193
rtoes -7.12993
lfemur -32.2127 -10.5416 -19.1555
ltibia 27.9803
lfoot -14.993 11.8609
ltoes -67.4831
89
root -23.0226 15.5117 -4.9769 -149.289 80.9913 -158.437
lowerback 5.77643 1.07458 2.4911
upperback -10.0029 2.42419 2.12
thorax -14.2284 1.18951 0.477614
lowerneck -17.4922 -5.07369 -4.64265
upperneck 29.5963 -2.72174 -7.4133
head 12.8055 -2.46177 -2.44754
rclavicle 4.82053e-015 7.15625e-015
rhumerus -40.2559 6.64419 -63.2031
rradius 108.295
rwrist 6.0092
rhand -37.8441 -14.3892
rfingers 7.12502
rthumb -10.8889 -44.0869
lclavicle 4.82053e-015 7.15625e-015
lhumerus -63.1919 21.9871 55.6533
lradius 21.6629
lwrist -29.0338
lhand -19.947 28.9892
lfingers 7.12502
lthumb 6.391 58.8728
rfemur 7.52931 -0.5671 29.3377
rtibia 31.3046
rfoot -10.0321 -24.6206
rtoes -1.02742
lfemur -29.021 -11.7786 -21.238
ltibia 26.2997
lfoot -16.4579 11.5076
ltoes -66.8749
90
root -22.7 15.5701 -5.09123 -157.573 81.3765 -166.467
lowerback 5.92825 0.970119 1.51808
upperback -9.99263 2.08904 1.67712
thorax -14.3199 1.09462 0.589412
lowerneck -17.0918 -5.00691 -4.434
upperneck 29.371 -2.72615 -7.4692
head 12.62 -2.4388 -2.48051
rclavicle -8.74653e-015 -2.34566e-014
rhumerus -38.8841 4.11775 -60.3346
rradius 114.197
rwrist 5.75232
rhand -41.8163 -15.3036
rfingers 7.12502
rthumb -14.7182 -44.7611
lclavicle -8.74653e-015 -2.34566e-014
lhumerus -62.117 20.306 57.4782
lradius 23.0489
lwrist -25.8482
lhand -21.1432 31.5876
lfingers 7.12502
lthumb 5.23605 61.5029
rfemur 4.7351 -2.77325 26.844
rtibia 37.1445
rfoot -5.8719 -26.6589
rtoes 0.11296
lfemur -26.0212 -12.983 -23.4238
ltibia 24.6466
lfoot -17.9308 10.9259
ltoes -66.2077
91
root -22.3901 15.6232 -5.19644 -165.791 81.5926 -174.527
lowerback 6.09451 0.869997 0.618753
upperback -10.002 1.77031 1.22742
thorax -14.4409 1.00196 0.650335
lowerneck -16.6685 -4.97 -4.22198
upperneck 29.1101 -2.75639 -7.58986
head 12.4153 -2.43492 -2.54061
rclavicle 4.16951e-014 3.57812e-015
rhumerus -37.2356 1.40877 -57.2259
rradius 119.475
rwrist 5.98217
rhand -45.3612 -14.7113
rfingers 7.12502
rthumb -18.1311 -43.8863
lclavicle 4.16951e-014 3.57812e-015
lhumerus -60.9264 18.3328 59.4805
lradius 24.815
lwrist -21.8107
lhand -22.1165 34.3397
lfingers 7.12502
lthumb 4.29625 64.2762
rfemur 1.74772 -4.70878 24.7803
rtibia 42.0788
rfoot -7.68682 -27.4911
rtoes -5.07969
lfemur -23.2889 -14.0724 -25.5018
ltibia 23.1544
lfoot -19.1667 10.8136
ltoes -65.981
92
root -22.0937 15.6715 -5.29285 -173.226 81.6321 -181.88
lowerback 6.3345 0.766023 -0.172463
upperback -10.0055 1.46192 0.801885
thorax -14.5999 0.906135 0.675287
lowerneck -16.5533 -4.95623 -4.01142
upperneck 29.0729 -2.74917 -7.79089
head 12.3665 -2.43235 -2.64551
rclavicle -2.08724e-015 -9.54166e-015
rhumerus -35.176 -1.72776 -53.938
rradius 124.46
rwrist 5.40183
rhand -49.3437 -17.5017
rfingers 7.12502
rthumb -21.9591 -46.2753
lclavicle -2.08724e-015 -9.54166e-015
lhumerus -59.6839 16.6446 60.9397
lradius 26.627
lwrist -18.0565
lhand -22.5681 35.4253
lfingers 7.12502
lthumb 3.86015 65.3701
rfemur -1.36494 -6.20027 23.2457
rtibia 45.7077
rfoot -11.4459 -25.9533
rtoes -4.01616
lfemur -20.8 -14.9321 -27.3748
ltibia 21.7338
lfoot -20.1442 10.145
ltoes -65.2393
93
root -21.8063 15.7103 -5.38052 -178.906 81.584 -187.597
lowerback 6.58566 0.670129 -0.773274
upperback -10.0562 1.2004 0.441403
thorax -14.8215 0.820682 0.656618
lowerneck -15.9884 -4.82887 -3.66263
upperneck 28.6547 -2.81895 -7.59892
head 12.0677 -2.3898 -2.60363
rclavicle 1.41634e-014 7.95139e-015
rhumerus -32.9081 -5.54673 -50.4865
rradius 128.274
rwrist 5.5733
rhand -52.0792 -16.8695
rfingers 7.12502
rthumb -24.5834 -45.3111
lclavicle 1.41634e-014 7.95139e-015
lhumerus -58.4377 15.1214 61.9367
lradius 28.3818
lwrist -14.9701
lhand -22.6558 36.0217
lfingers 7.12502
lthumb 3.77546 65.968
rfemur -4.80228 -7.46191 22.2733
rtibia 48.4384
rfoot -15.3088 -23.4931
rtoes -2.4737
lfemur -18.572 -15.4569 -28.9128
ltibia 20.3374
lfoot -20.9456 9.41643
ltoes -64.6047
94
root -21.5227 15.7399 -5.45794 -183.157 81.6286 -191.964
lowerback 6.81374 0.616601 -1.17219
upperback -10.1499 1.03021 0.114741
thorax -15.0799 0.761942 0.544361
lowerneck -15.6907 -4.72763 -3.3292
upperneck 28.6851 -2.79279 -7.57584
head 12.0066 -2.33269 -2.63707
rclavicle -3.77691e-015 1.09332e-014
rhumerus -30.5024 -9.93812 -47.4162
rradius 131.48
rwrist 5.95583
rhand -53.7906 -17.1917
rfingers 7.12502
rthumb -26.2229 -45.4
lclavicle -3.77691e-015 1.09332e-014
lhumerus -57.2095 13.4865 62.8606
lradius 30.2169
lwrist -11.9385
lhand -24.0932 36.585
lfingers 7.12502
lthumb 2.38733 66.5514
rfemur -8.59509 -8.57964 21.8383
rtibia 50.4769
rfoot -19.6809 -19.3806
rtoes -2.88264
lfemur -16.5048 -15.7311 -30.1459
ltibia 18.9573
lfoot -21.6467 9.23644
ltoes -64.5474
95
root -21.239 15.7637 -5.52859 -185.29 81.7494 -194.272
lowerback 6.92555 0.580863 -1.28239
upperback -10.2396 0.940069 -0.105303
thorax -15.2578 0.717675 0.374825
lowerneck -15.5488 -4.7025 -3.25562
upperneck 28.8634 -2.77446 -7.54154
head 12.0462 -2.30868 -2.63574
rclavicle 1.07344e-014 1.63003e-014
rhumerus -27.8797 -14.5855 -45.1783
rradius 133.767
rwrist 6.89528
rhand -55.1522 -16.4877
rfingers 7.12502
rthumb -27.5257 -44.4955
lclavicle 1.07344e-014 1.63003e-014
lhumerus -55.9388 12.2462 63.4059
lradius 31.8767
lwrist -9.59785
lhand -26.3999 36.4755
lfingers 7.12502
lthumb 0.159505 66.4552
rfemur -12.6426 -9.54191 22.0592
rtibia 51.85
rfoot -15.9443 -24.2152
rtoes 3.2652
lfemur -14.6198 -16.0384 -30.9406
ltibia 17.5717
lfoot -22.1837 9.79424
ltoes -65.0694
